# xmcd CD database file
#
# Track frame offsets:
#	150
#	11839
#	29682
#	46033
#	62401
#	77941
#	96130
#	109680
#	125825
#	149644
#	166514
#	182475
#	205187
#	222483
#	242620
#	258297
#	275735
#	295031
#
# Disc length: 4168 seconds
#
# Revision: 0
# Processed by: cddbd v1.5.1PL0 Copyright (c) Steve Scherf et al.
# Submitted via: CDex 1.51
#
DISCID=07104612
DTITLE=Varios - La música de los dioses vol. IV
DYEAR=1900
DGENRE=New Age
TTITLE0=STIGMA "A Matter of Chance"
TTITLE1=FREEDOM "Children of Strike"
TTITLE2=THE DARK SIDE "In Domine"
TTITLE3=CLARKE'S "Poem Without Words"
TTITLE4=KENYA "Kenya"
TTITLE5=RED RAIN "Sacred Voices"
TTITLE6=HYMN "The Battle"
TTITLE7=AMAZONIA "In the Midnight Hour"
TTITLE8=ETERNIA "Blue Angel"
TTITLE9=GAIA "Rainshine"
TTITLE10=FLYING GIRL "Across the Universe"
TTITLE11=SYGN "Nothing Without You"
TTITLE12=DARKNESS SPIRIT "Pearl Harbour Theme"
TTITLE13=DIAMOND "Silence"
TTITLE14=FREELAND "Freeland"
TTITLE15=BIG BLUE "Voices of Asia"
TTITLE16=MAGIQUE "Sometimes"
TTITLE17=FREEDOM "Orient Express"
EXTD=
EXTT0=
EXTT1=
EXTT2=
EXTT3=
EXTT4=
EXTT5=
EXTT6=
EXTT7=
EXTT8=
EXTT9=
EXTT10=
EXTT11=
EXTT12=
EXTT13=
EXTT14=
EXTT15=
EXTT16=
EXTT17=
PLAYORDER=
